<svg version="1" xmlns="http://www.w3.org/2000/svg" width="933.333" height="933.333" viewBox="0 0 700.000000 700.000000"><path d="M0 350v350h700V0H0v350zm175.8-27.8L176 441h122v54H105V349.7c0-80 .3-145.7.7-146 .4-.4 16.2-.6 35.2-.5l34.6.3.3 118.7zm183.7-118.3c.3.5 7.7 40.5 16.5 88.8s16.4 88.6 16.8 89.6c.4 1 8.3-33 20.1-87 10.7-48.9 19.8-89.6 20.3-90.6.8-1.6 3.3-1.7 29.8-1.7s29 .1 29.8 1.7c.5 1 9.9 42 20.8 91.2s19.9 89 20.1 88.5c.1-.5 7.4-40.5 16.3-88.9 8.8-48.4 16.2-89 16.5-90.3l.5-2.2h34.5c18.9 0 34.6.3 34.8.7.2.5-13.5 66-30.4 145.8-17 79.7-30.9 145.1-30.9 145.2 0 .2-16.5.3-36.7.3h-36.8l-18.9-80.8c-10.4-44.4-19.1-81.2-19.5-81.9-.5-.9-19.4 79.5-36.9 156.5l-1.4 6.2-36.7-.2-36.6-.3-30.7-144c-16.9-79.2-30.7-144.8-30.8-145.8 0-1.6 2.3-1.7 34.4-1.7 20.3 0 34.7.4 35.1.9z"/></svg>